Filename:
Edge Of Darkness TS XVID - IMAGiNE

Ripper ...........: IMAGiNE                                        IMDB Rating.......:7.2/10                            
Video Codec.......: XVID                                         Release Date......:09/02/10
Audio Codec.......:MP3                                           Theatre Date......:29/01/10
Audio Bitrate.....:195                                              Runtime.......:1h 48mn
Subtitles.........:NIL                                                 Language..........:ENGLISH
Resolution...... 720 x 320                                      IMDb URL..........:http://www.imdb.com/title/tt1226273/


DETAILS:

Video
ID                               : 0
Format                           : MPEG-4 Visual
Format profile                   : Advanced Simple@L5
Format settings, BVOP            : Yes
Format settings, QPel            : No
Format settings, GMC             : No warppoints
Format settings, Matrix          : Default (MPEG)
Muxing mode                      : Packed bitstream
Codec ID                         : XVID
Codec ID/Hint                    : XviD
Duration                         : 1h 48mn
Bit rate                         : 1 680 Kbps
Width                            : 720 pixels
Height                           : 320 pixels
Display aspect ratio             : 2.25:1
Frame rate                       : 25.000 fps
Resolution                       : 8 bits
Colorimetry                      : 4:2:0
Scan type                        : Progressive
Bits/(Pixel*Frame)               : 0.292
Stream size                      : 1.28 GiB (89%)
Writing library                  : XviD 1.2.1 (UTC 2008-12-04)

Audio
ID                               : 1
Format                           : MPEG Audio
Format version                   : Version 1
Format profile                   : Layer 3
Mode                             : Joint stereo
Format_Settings_ModeExtension    : MS Stereo
Codec ID                         : 55
Codec ID/Hint                    : MP3
Duration                         : 1h 48mn
Bit rate mode                    : Variable
Bit rate                         : 195 Kbps
Channel(s)                       : 2 channels
Sampling rate                    : 48.0 KHz
Stream size                      : 152 MiB (10%)
Alignment                        : Aligned on interleaves
Interleave, duration             : 24 ms (0.60 video frame)
Interleave, preload duration     : 501 ms


NOTES:

IMAGiNE bringing you another release.....
This time it's edge of darkness.....our sources this time is the russian 8.67gig mts files and the really nice
audio from Ghostman + Greenfrogr- (ELITE) (thanks and nice stuff).
Right by now you all know about the flicker on this release....ran a deflicker over it but it's done almost nothing.
The video is a tad on the dark side but overall more than watchable unless your really fussy.
We used the quad filter in vdub to allow us to cut the black borders only without cutting any of the video ....also we
did our normal tweaking.
The audio was just a case of remuxing to the video ,oh and we used Rx's tweaked audio version (thanks).
This version is clear of all watermarks like the russian cams,ts's normally have,thanks to our good friend ELEKTRI4KA
for supplying us the source files